HIERARCHY
ROOT Hips
{
	OFFSET 0.000000 100.481300 0.000000
	CHANNELS 6 Xposition Yposition Zposition Xrotation Yrotation Zrotation 
	JOINT Spine
	{
		OFFSET -0.279200 12.230698 -2.892100
		CHANNELS 3 Xrotation Yrotation Zrotation
		JOINT Spine1
		{
			OFFSET -0.232667 10.192268 -1.242267
			CHANNELS 3 Xrotation Yrotation Zrotation
			JOINT Spine1_split
			{
				OFFSET -0.232667 10.192268 -1.242267
				CHANNELS 3 Xrotation Yrotation Zrotation
				JOINT Spine2
				{
					OFFSET -0.232667 10.192268 -1.242267
					CHANNELS 3 Xrotation Yrotation Zrotation
					JOINT Neck
					{
						OFFSET -0.418800 17.814194 8.416900
						CHANNELS 3 Xrotation Yrotation Zrotation
						JOINT Head
						{
							OFFSET 0.000000 7.031097 3.806800
							CHANNELS 3 Xrotation Yrotation Zrotation
							JOINT HeadTop_End
							{
								OFFSET 0.000000 24.646606 12.978600
								CHANNELS 3 Xrotation Yrotation Zrotation
								End Site
								{
									OFFSET 0.000000 0.000000 0.000000
								}
							}
						}
					}
					JOINT LeftShoulder
					{
						OFFSET 8.476499 7.247704 -3.868750
						CHANNELS 3 Xrotation Yrotation Zrotation
						JOINT LeftShoulder_split
						{
							OFFSET 8.476499 7.247704 -3.868750
							CHANNELS 3 Xrotation Yrotation Zrotation
							JOINT LeftArm
							{
								OFFSET 9.308998 -2.777710 0.208600
								CHANNELS 3 Xrotation Yrotation Zrotation
								JOINT LeftForeArm
								{
									OFFSET 29.972298 0.000000 0.000000
									CHANNELS 3 Xrotation Yrotation Zrotation
									JOINT LeftHand
									{
										OFFSET 26.026505 0.000000 0.000000
										CHANNELS 3 Xrotation Yrotation Zrotation
										JOINT LeftHandThumb1
										{
											OFFSET 12.240501 -7.147949 9.207150
											CHANNELS 3 Xrotation Yrotation Zrotation
											JOINT LeftHandThumb2
											{
												OFFSET 4.138618 -2.389435 2.389433
												CHANNELS 3 Xrotation Yrotation Zrotation
												JOINT LeftHandThumb3
												{
													OFFSET 2.726913 -1.574387 1.574386
													CHANNELS 3 Xrotation Yrotation Zrotation
													JOINT LeftHandThumb4
													{
														OFFSET 3.941010 -2.275345 2.275342
														CHANNELS 3 Xrotation Yrotation Zrotation
														End Site
														{
															OFFSET 0.000000 0.000000 0.000000
														}
													}
												}
											}
										}
										JOINT LeftHandIndex1
										{
											OFFSET 24.424698 -1.985611 5.953459
											CHANNELS 3 Xrotation Yrotation Zrotation
											JOINT LeftHandIndex2
											{
												OFFSET 6.426697 0.000000 0.000000
												CHANNELS 3 Xrotation Yrotation Zrotation
												JOINT LeftHandIndex3
												{
													OFFSET 5.337898 0.000000 0.000000
													CHANNELS 3 Xrotation Yrotation Zrotation
													JOINT LeftHandIndex4
													{
														OFFSET 4.409401 0.000000 0.000000
														CHANNELS 3 Xrotation Yrotation Zrotation
														End Site
														{
															OFFSET 0.000000 0.000000 0.000000
														}
													}
												}
											}
										}
										JOINT LeftHandMiddle1
										{
											OFFSET 23.810104 0.000000 0.000000
											CHANNELS 3 Xrotation Yrotation Zrotation
											JOINT LeftHandMiddle2
											{
												OFFSET 7.176498 0.000000 0.000000
												CHANNELS 3 Xrotation Yrotation Zrotation
												JOINT LeftHandMiddle3
												{
													OFFSET 6.774902 0.000000 0.000000
													CHANNELS 3 Xrotation Yrotation Zrotation
													JOINT LeftHandMiddle4
													{
														OFFSET 5.403328 0.000000 0.000000
														CHANNELS 3 Xrotation Yrotation Zrotation
														End Site
														{
															OFFSET 0.000000 0.000000 0.000000
														}
													}
												}
											}
										}
										JOINT LeftHandRing1
										{
											OFFSET 22.908401 -0.839279 -6.020567
											CHANNELS 3 Xrotation Yrotation Zrotation
											JOINT LeftHandRing2
											{
												OFFSET 6.337502 0.000000 0.000000
												CHANNELS 3 Xrotation Yrotation Zrotation
												JOINT LeftHandRing3
												{
													OFFSET 5.779297 0.000000 0.000000
													CHANNELS 3 Xrotation Yrotation Zrotation
													JOINT LeftHandRing4
													{
														OFFSET 4.965698 0.000000 0.000000
														CHANNELS 3 Xrotation Yrotation Zrotation
														End Site
														{
															OFFSET 0.000000 0.000000 0.000000
														}
													}
												}
											}
										}
										JOINT LeftHandPinky1
										{
											OFFSET 20.037003 -1.530319 -10.950146
											CHANNELS 3 Xrotation Yrotation Zrotation
											JOINT LeftHandPinky2
											{
												OFFSET 5.254700 0.000000 0.000000
												CHANNELS 3 Xrotation Yrotation Zrotation
												JOINT LeftHandPinky3
												{
													OFFSET 4.810204 0.000000 0.000000
													CHANNELS 3 Xrotation Yrotation Zrotation
													JOINT LeftHandPinky4
													{
														OFFSET 3.647202 0.000000 0.000000
														CHANNELS 3 Xrotation Yrotation Zrotation
														End Site
														{
															OFFSET 0.000000 0.000000 0.000000
														}
													}
												}
											}
										}
									}
								}
							}
						}
					}
					JOINT RightShoulder
					{
						OFFSET -7.570500 7.247704 -3.868750
						CHANNELS 3 Xrotation Yrotation Zrotation
						JOINT RightShoulder_split
						{
							OFFSET -7.570500 7.247704 -3.868750
							CHANNELS 3 Xrotation Yrotation Zrotation
							JOINT RightArm
							{
								OFFSET -9.308998 -2.777710 0.208500
								CHANNELS 3 Xrotation Yrotation Zrotation
								JOINT RightForeArm
								{
									OFFSET -29.972300 0.000000 0.000000
									CHANNELS 3 Xrotation Yrotation Zrotation
									JOINT RightHand
									{
										OFFSET -26.026505 0.000000 0.000000
										CHANNELS 3 Xrotation Yrotation Zrotation
										JOINT RightHandThumb1
										{
											OFFSET -12.240601 -7.148026 9.207092
											CHANNELS 3 Xrotation Yrotation Zrotation
											JOINT RightHandThumb2
											{
												OFFSET -4.138618 -2.389435 2.389433
												CHANNELS 3 Xrotation Yrotation Zrotation
												JOINT RightHandThumb3
												{
													OFFSET -2.726974 -1.574417 1.574421
													CHANNELS 3 Xrotation Yrotation Zrotation
													JOINT RightHandThumb4
													{
														OFFSET -3.941010 -2.275345 2.275343
														CHANNELS 3 Xrotation Yrotation Zrotation
														End Site
														{
															OFFSET 0.000000 0.000000 0.000000
														}
													}
												}
											}
										}
										JOINT RightHandIndex1
										{
											OFFSET -24.424698 -1.985657 5.953444
											CHANNELS 3 Xrotation Yrotation Zrotation
											JOINT RightHandIndex2
											{
												OFFSET -6.426697 0.000000 0.000000
												CHANNELS 3 Xrotation Yrotation Zrotation
												JOINT RightHandIndex3
												{
													OFFSET -5.337898 0.000000 0.000000
													CHANNELS 3 Xrotation Yrotation Zrotation
													JOINT RightHandIndex4
													{
														OFFSET -4.409401 0.000000 0.000000
														CHANNELS 3 Xrotation Yrotation Zrotation
														End Site
														{
															OFFSET 0.000000 0.000000 0.000000
														}
													}
												}
											}
										}
										JOINT RightHandMiddle1
										{
											OFFSET -23.810097 0.000000 0.000000
											CHANNELS 3 Xrotation Yrotation Zrotation
											JOINT RightHandMiddle2
											{
												OFFSET -7.176498 0.000000 0.000000
												CHANNELS 3 Xrotation Yrotation Zrotation
												JOINT RightHandMiddle3
												{
													OFFSET -6.774902 0.000000 0.000000
													CHANNELS 3 Xrotation Yrotation Zrotation
													JOINT RightHandMiddle4
													{
														OFFSET -5.403328 0.000000 0.000000
														CHANNELS 3 Xrotation Yrotation Zrotation
														End Site
														{
															OFFSET 0.000000 0.000000 0.000000
														}
													}
												}
											}
										}
										JOINT RightHandRing1
										{
											OFFSET -22.908302 -0.839325 -6.020576
											CHANNELS 3 Xrotation Yrotation Zrotation
											JOINT RightHandRing2
											{
												OFFSET -6.337502 0.000000 0.000000
												CHANNELS 3 Xrotation Yrotation Zrotation
												JOINT RightHandRing3
												{
													OFFSET -5.779297 0.000000 0.000000
													CHANNELS 3 Xrotation Yrotation Zrotation
													JOINT RightHandRing4
													{
														OFFSET -4.965698 0.000000 0.000000
														CHANNELS 3 Xrotation Yrotation Zrotation
														End Site
														{
															OFFSET 0.000000 0.000000 0.000000
														}
													}
												}
											}
										}
										JOINT RightHandPinky1
										{
											OFFSET -20.037003 -1.530334 -10.950259
											CHANNELS 3 Xrotation Yrotation Zrotation
											JOINT RightHandPinky2
											{
												OFFSET -5.254700 0.000000 0.000000
												CHANNELS 3 Xrotation Yrotation Zrotation
												JOINT RightHandPinky3
												{
													OFFSET -4.810204 0.000000 0.000000
													CHANNELS 3 Xrotation Yrotation Zrotation
													JOINT RightHandPinky4
													{
														OFFSET -3.647202 0.000000 0.000000
														CHANNELS 3 Xrotation Yrotation Zrotation
														End Site
														{
															OFFSET 0.000000 0.000000 0.000000
														}
													}
												}
											}
										}
									}
								}
							}
						}
					}
				}
			}
		}
	}
	JOINT LeftUpLeg
	{
		OFFSET 15.427100 -6.655098 0.678600
		CHANNELS 3 Xrotation Yrotation Zrotation
		JOINT LeftLeg
		{
			OFFSET 4.081073 -39.591068 13.024000
			CHANNELS 3 Xrotation Yrotation Zrotation
			JOINT LeftFoot
			{
				OFFSET -4.081074 -37.707932 -15.979700
				CHANNELS 3 Xrotation Yrotation Zrotation
				JOINT LeftToeBase
				{
					OFFSET 5.346399 -15.068900 20.645000
					CHANNELS 3 Xrotation Yrotation Zrotation
					JOINT LeftToe_End
					{
						OFFSET 2.754700 0.931300 11.300900
						CHANNELS 3 Xrotation Yrotation Zrotation
						End Site
						{
							OFFSET 0.000000 0.000000 0.000000
						}
					}
				}
			}
		}
	}
	JOINT RightUpLeg
	{
		OFFSET -15.569500 -6.655098 0.678600
		CHANNELS 3 Xrotation Yrotation Zrotation
		JOINT RightLeg
		{
			OFFSET -4.081825 -39.591045 13.023800
			CHANNELS 3 Xrotation Yrotation Zrotation
			JOINT RightFoot
			{
				OFFSET 4.081824 -37.707954 -15.979600
				CHANNELS 3 Xrotation Yrotation Zrotation
				JOINT RightToeBase
				{
					OFFSET -5.346400 -15.068900 20.645000
					CHANNELS 3 Xrotation Yrotation Zrotation
					JOINT RightToe_End
					{
						OFFSET -2.754700 0.931300 11.300900
						CHANNELS 3 Xrotation Yrotation Zrotation
						End Site
						{
							OFFSET 0.000000 0.000000 0.000000
						}
					}
				}
			}
		}
	}
}
MOTION
Frames: 4
Frame Time: 0.016667
0.614680 37.240479 -21.679358 0.295477 0.363823 0.943747 1.236175 0.614965 -0.192422 0.110009 0.122969 -0.090715 0.000000 0.000000 0.000000 0.108808 0.114775 -0.092286 -0.391163 0.001168 0.119094 -1.124861 0.498129 0.197438 0.000000 -0.000000 -0.000000 0.606873 -3.284651 -22.051940 0.000000 0.000000 0.000000 11.464581 -16.354594 -52.988522 -0.000000 -20.361388 -0.000001 -6.670430 11.936417 -5.315170 -8.139829 -14.751870 10.508539 11.522765 33.951388 -1.839708 3.775262 9.818960 17.836003 0.000002 -0.000003 -0.000004 -0.453780 -5.320374 -4.184403 0.332717 1.947936 -19.383541 0.050438 0.767893 -7.515329 0.000002 0.000000 -0.000001 -0.401516 -0.921336 -7.463553 1.036271 3.328481 -34.578017 0.002809 -0.181633 1.772738 -0.000001 -0.000002 -0.000005 -0.149529 2.814366 -20.128146 0.105530 1.108097 -10.879707 0.129583 1.226655 -12.060761 0.000002 -0.000002 -0.000004 -7.736887 8.986367 -14.639672 0.589056 2.562163 -25.891227 0.348357 1.991823 -19.838687 0.000000 0.000000 -0.000004 -0.115225 9.903020 22.054930 0.000000 0.000000 0.000000 7.750431 7.038400 56.271982 -0.000005 19.886627 0.000018 -2.747034 -6.054063 1.890079 -17.666042 6.240232 -1.517381 -4.146426 -35.461400 -9.882264 3.008613 -18.516400 -20.364311 -0.000002 0.000002 0.000001 13.894425 5.077786 9.899984 0.129273 -1.090757 13.516394 0.009173 0.292414 -3.591901 0.000000 -0.000000 -0.000000 -0.138697 -1.041593 7.048780 0.785993 -2.591011 33.745376 0.123918 -1.068309 13.232927 0.000000 0.000000 0.000000 0.562748 -5.309927 11.245068 0.534003 -2.167228 27.680983 0.310758 -1.674298 21.027651 -0.000001 -0.000000 -0.000005 -12.301547 -16.678043 11.029496 0.315741 -1.687209 21.197736 0.313444 -1.681286 21.119761 0.000001 0.000000 0.000002 -4.767778 -7.164871 20.749604 104.914267 4.810148 -0.150171 25.925609 -2.446676 -19.387560 11.674469 7.193294 35.857824 0.000003 0.000000 -0.000001 -3.824616 1.241343 -17.714234 103.945541 4.296476 1.273221 16.432716 1.413637 14.270381 32.631413 15.789116 5.241554 -0.000000 -0.000001 -0.000002 
0.626556 37.238266 -21.686083 0.302451 0.290740 0.835842 1.202258 0.625570 -0.183926 0.052092 0.122970 -0.079784 0.000000 0.000000 0.000000 0.095956 0.114775 -0.080994 -0.228473 -0.005408 0.129676 0.329910 0.494719 0.033181 -0.000000 0.000000 0.000000 0.608520 -3.276007 -22.034008 0.000000 0.000000 0.000000 11.676377 -16.033980 -52.975422 0.000000 -20.991234 0.000000 -6.051221 11.322431 -4.940441 -8.139820 -14.751878 10.508556 11.522778 33.951388 -1.839729 3.775271 9.818954 17.835974 0.000000 0.000001 -0.000004 -0.453768 -5.320375 -4.184378 0.332718 1.947935 -19.383548 0.050426 0.767893 -7.515366 -0.000002 0.000000 0.000000 -0.401509 -0.921339 -7.463560 1.036274 3.328482 -34.578021 0.002809 -0.181634 1.772757 -0.000001 -0.000001 0.000001 -0.149524 2.814367 -20.128156 0.105527 1.108093 -10.879702 0.129595 1.226657 -12.060775 -0.000000 0.000000 0.000000 -7.736880 8.986364 -14.639657 0.589056 2.562164 -25.891227 0.348358 1.991822 -19.838691 0.000000 -0.000000 -0.000002 -0.112319 9.880031 22.058284 0.000000 0.000000 0.000000 7.556012 7.063305 56.310627 -0.000004 19.520831 -0.000014 -3.871947 -5.621827 1.949134 -17.631787 6.226379 -1.472169 -4.122533 -35.426477 -9.858929 2.892200 -18.401527 -20.514436 -0.000003 0.000005 -0.000002 13.897248 5.063028 9.896205 0.129268 -1.090757 13.516383 0.009205 0.292942 -3.598295 0.000002 0.000001 0.000001 -0.138557 -1.041048 7.042433 0.785980 -2.591020 33.745393 0.123927 -1.068306 13.232922 0.000000 -0.000001 0.000002 0.562408 -5.309471 11.238693 0.534006 -2.167231 27.680977 0.310591 -1.673854 21.021883 0.000000 -0.000000 0.000001 -12.305490 -16.660358 11.028098 0.315740 -1.687209 21.197731 0.315684 -1.687062 21.195870 -0.000000 -0.000000 -0.000001 -4.633542 -7.218473 20.922080 104.920360 4.683894 -0.279756 25.855246 -2.412577 -19.422205 11.674580 7.193432 35.857872 0.000003 0.000000 -0.000001 -3.949437 1.253850 -17.589013 103.973094 4.173686 1.188370 16.508548 1.501662 14.250978 32.629535 15.776786 5.237135 0.000003 0.000000 -0.000000 
0.638651 37.236069 -21.691900 0.307789 0.219547 0.727436 1.165081 0.633364 -0.174491 -0.003815 0.122969 -0.069356 0.000000 0.000000 0.000000 0.082491 0.114775 -0.070304 -0.071077 -0.012587 0.139877 1.744316 0.480030 -0.128429 -0.000000 -0.000000 0.000000 0.612547 -3.237234 -22.011260 0.000000 0.000000 0.000000 11.987007 -15.467819 -52.997593 0.000002 -21.987794 0.000009 -5.382026 10.694938 -4.502708 -8.139834 -14.751872 10.508551 11.522779 33.951381 -1.839748 3.775263 9.818951 17.835994 -0.000001 0.000001 -0.000002 -0.453772 -5.320381 -4.184392 0.332708 1.947945 -19.383541 0.050436 0.767890 -7.515349 0.000002 -0.000000 0.000000 -0.401516 -0.921339 -7.463577 1.036273 3.328483 -34.578034 0.002805 -0.181640 1.772752 -0.000002 0.000001 0.000003 -0.149528 2.814366 -20.128159 0.105524 1.108088 -10.879717 0.129593 1.226661 -12.060769 0.000001 0.000001 0.000003 -7.736887 8.986372 -14.639657 0.589051 2.562158 -25.891239 0.348356 1.991827 -19.838686 0.000000 -0.000000 0.000001 -0.109608 9.836589 22.070940 0.000000 0.000000 0.000000 7.347446 6.953232 56.327897 -0.000003 19.192806 0.000011 -5.078328 -5.110208 2.168235 -17.553641 6.187611 -1.350079 -4.048852 -35.369370 -9.802751 2.674048 -18.062183 -20.788763 -0.000002 0.000001 0.000001 13.900050 5.031331 9.920338 0.129425 -1.091420 13.524797 0.009107 0.291298 -3.578276 0.000000 0.000001 0.000001 -0.138978 -1.042691 7.061635 0.786361 -2.591581 33.753719 0.124021 -1.068719 13.238193 -0.000001 0.000000 0.000000 0.563435 -5.310873 11.257974 0.534319 -2.167824 27.689322 0.311093 -1.675179 21.039307 -0.000002 0.000001 0.000002 -12.306929 -16.625895 11.059023 0.316051 -1.688019 21.208359 0.321330 -1.701540 21.386781 -0.000001 -0.000001 0.000001 -4.508557 -7.249356 21.081015 104.925059 4.558972 -0.390805 25.785665 -2.360343 -19.460816 11.674898 7.193600 35.857537 0.000000 0.000000 -0.000001 -4.067752 1.268246 -17.465313 103.997669 4.050640 1.106287 16.583380 1.593727 14.232633 32.626277 15.765227 5.233642 0.000001 -0.000001 -0.000002 
0.650899 37.233368 -21.697702 0.312063 0.149370 0.618855 1.125861 0.639557 -0.164615 -0.058467 0.122970 -0.059246 0.000000 0.000000 0.000000 0.068642 0.114775 -0.059990 0.083013 -0.020142 0.149842 3.133421 0.460802 -0.287752 -0.000000 -0.000000 0.000000 0.620312 -3.169125 -21.988828 0.000000 0.000000 0.000000 12.328128 -14.761506 -53.058924 -0.000007 -23.142216 0.000013 -4.776226 10.167324 -4.082460 -8.139831 -14.751872 10.508535 11.522767 33.951378 -1.839740 3.775271 9.818960 17.836003 -0.000001 -0.000002 0.000001 -0.453771 -5.320380 -4.184385 0.332709 1.947933 -19.383544 0.050431 0.767899 -7.515343 -0.000002 0.000000 0.000000 -0.401513 -0.921341 -7.463576 1.036269 3.328481 -34.578021 0.002809 -0.181634 1.772748 0.000002 0.000001 0.000000 -0.149527 2.814368 -20.128146 0.105526 1.108091 -10.879743 0.129591 1.226658 -12.060759 -0.000002 0.000001 0.000002 -7.736888 8.986369 -14.639657 0.589056 2.562162 -25.891237 0.348356 1.991823 -19.838691 0.000000 0.000001 -0.000000 -0.108020 9.779241 22.093358 0.000000 0.000000 0.000000 7.155696 6.738901 56.317136 -0.000001 18.933008 -0.000001 -6.140821 -4.611272 2.521071 -17.448355 6.132571 -1.164811 -3.936246 -35.319277 -9.728618 2.386639 -17.518108 -21.076367 -0.000000 0.000001 -0.000000 13.899343 4.991653 9.992873 0.130032 -1.093976 13.557004 0.008756 0.285661 -3.508976 0.000001 -0.000001 -0.000000 -0.140424 -1.048369 7.128612 0.787807 -2.593749 33.785736 0.124411 -1.070386 13.259221 0.000001 0.000000 -0.000003 0.566992 -5.315728 11.325264 0.535526 -2.170133 27.721351 0.312874 -1.679796 21.100068 -0.000000 0.000000 -0.000001 -12.302569 -16.587948 11.141762 0.317155 -1.690853 21.245763 0.329562 -1.722402 21.662355 -0.000001 0.000000 -0.000001 -4.393765 -7.258654 21.229392 104.929095 4.433581 -0.485452 25.715690 -2.293427 -19.499287 11.674516 7.193622 35.858964 -0.000000 0.000000 -0.000000 -4.185781 1.276209 -17.335946 104.021684 3.935261 1.022206 16.657950 1.671177 14.217631 32.609386 15.753717 5.235839 -0.000000 -0.000001 -0.000001 
